<svg xmlns="http://www.w3.org/2000/svg" width="238" height="52" fill="none" viewBox="0 0 238 52">
    <path fill="#84BE52" fill-rule="evenodd" d="M10.812 22.165v10.943h11.346v8.468l-7.947-2.654.011-.026.006-.014-3.925-1.264C2.46 34.998-1.776 26.744.711 19.063l.23-.656C3.785 10.846 12.307 6.852 20.149 9.47l2.009.666v12.029H10.812zm32.656 0c-1.68-3.58-4.799-6.51-8.915-7.884l-1.115-.372v8.256h10.03zm-10.03 20.588c4.786-1.212 8.877-4.675 10.596-9.589.005-.012.01-.024.013-.037l.006-.019H33.439v9.645z" clip-rule="evenodd"/>
    <path fill="#24AEB1" fill-rule="evenodd" d="M175.171 35.697c.618 0 1.198-.085 1.723-.252.571-.182 1.066-.492 1.473-.921.408-.433.731-1.027.958-1.766.231-.754.347-1.716.347-2.857v-1.234c0-1.14-.116-2.114-.35-2.895-.226-.764-.55-1.39-.964-1.858-.407-.463-.903-.802-1.473-1.006-.529-.188-1.115-.284-1.739-.284l-.2.003-.232-.003c-.622 0-1.207.091-1.731.27-.57.191-1.066.524-1.47.983-.413.471-.738 1.101-.964 1.876-.231.79-.35 1.77-.35 2.914v1.234c0 1.144.117 2.11.35 2.877.224.75.545 1.348.955 1.782.405.426.899.73 1.468.9.589.178 1.245.256 1.953.233.098.003.171.004.246.004zm2.549-15.391c.664.196 1.294.424 1.883.676l.071-9.707h4.79v17.992c-.048 1.399-.26 2.663-.628 3.768-.375 1.12-.96 2.091-1.736 2.888-.778.796-1.784 1.416-2.994 1.841-1.197.423-2.659.637-4.351.637-1.621 0-3.02-.214-4.158-.638-1.15-.426-2.114-1.048-2.867-1.845-.751-.793-1.32-1.764-1.694-2.885-.369-1.103-.58-2.367-.629-3.756.049-1.408.26-2.682.629-3.81.373-1.143.942-2.137 1.692-2.954.752-.82 1.715-1.465 2.863-1.917 1.141-.447 2.542-.675 4.164-.675 1.11 0 2.107.129 2.965.385zm-35.743 2.44c-.741-.834-1.712-1.487-2.889-1.94-1.164-.447-2.588-.673-4.232-.673-1.553 0-2.936.24-4.112.712-1.067.429-1.991 1.036-2.747 1.813-.696-.73-1.58-1.305-2.631-1.709-1.165-.449-2.601-.675-4.272-.675-2.991 0-5.324.87-6.934 2.59-1.601 1.708-2.413 4.064-2.413 7.003v8.498h4.793v-9.593c0-1.142.117-2.108.348-2.874.225-.75.547-1.348.957-1.783.405-.426.899-.73 1.467-.9.523-.158 1.102-.238 1.72-.238.078 0 .155 0 .255.003.702-.022 1.323.062 1.848.247.507.18.94.485 1.285.908.356.434.634 1.023.826 1.752.196.747.297 1.694.297 2.816v9.662h4.792v-8.109c0-.622-.007-1.028-.018-1.22-.011-.18-.018-.315-.018-.403 0-1.143.117-2.111.349-2.877.226-.75.548-1.35.957-1.781.405-.427.896-.73 1.465-.903.525-.157 1.104-.236 1.722-.236l.201.003h.053c.703-.022 1.332.063 1.869.248.519.178.955.483 1.301.905.355.433.625 1.028.806 1.765.186.761.28 1.728.28 2.876v9.732h4.794v-8.638c0-1.458-.167-2.787-.5-3.948-.336-1.18-.88-2.2-1.619-3.033zm11.151.702c.489-.287 1.072-.431 1.733-.431h.071c1.244 0 2.231.393 3.02 1.207.736.764 1.218 1.998 1.427 3.672h-8.746c.079-.562.205-1.11.379-1.64.204-.623.486-1.181.839-1.658.346-.468.776-.856 1.277-1.15zm8.501-.378c-.798-.816-1.77-1.469-2.884-1.942-1.117-.471-2.374-.724-3.752-.747-1.291.047-2.496.319-3.587.802-1.093.486-2.054 1.143-2.86 1.955-.808.813-1.443 1.767-1.892 2.834-.446 1.068-.673 2.224-.673 3.447.05 1.302.319 2.515.804 3.607.483 1.09 1.145 2.043 1.964 2.832.822.79 1.798 1.413 2.903 1.851 1.104.436 2.327.655 3.619.655h.005c.127.007.252.011.377.011.748 0 1.48-.128 2.174-.383.775-.283 1.548-.594 2.294-.924l.241-.107-.427-1.729-.318.084c-1.481.391-2.667.589-3.53.589-1.025 0-1.886-.176-2.558-.528-.676-.352-1.232-.799-1.647-1.326-.42-.53-.729-1.126-.922-1.766-.162-.537-.281-1.066-.357-1.576h13.388v-.313c0-.137.007-.313.019-.531.012-.231.018-.406.018-.514.051-1.191-.139-2.343-.562-3.424-.423-1.08-1.041-2.041-1.837-2.857zm37.416 7.754c-.355-.609-.825-1.139-1.398-1.574-.559-.424-1.196-.794-1.889-1.098-.668-.291-1.353-.572-2.033-.832-.529-.212-1.042-.417-1.534-.618-.471-.191-.895-.411-1.258-.657-.354-.238-.638-.498-.845-.774-.189-.253-.282-.55-.282-.91 0-.334.087-.616.266-.857.189-.259.438-.48.737-.657.307-.183.672-.325 1.082-.423.42-.099.852-.15 1.251-.15.773.068 1.452.167 2.015.294.556.123 1.046.277 1.459.456.416.181.783.375 1.09.575.32.208.622.417.906.625l.513.375v-.625c0-.35.004-.692.017-1.03.013-.36-.018-.789-.095-1.275l-.021-.146-.129-.075c-.486-.285-.942-.532-1.359-.736-.428-.209-.888-.376-1.36-.498-.473-.121-.987-.207-1.534-.256-.537-.048-1.155-.072-1.834-.072-.893 0-1.759.111-2.577.329-.822.218-1.566.547-2.209.977-.649.435-1.171.975-1.556 1.598-.391.634-.589 1.353-.589 2.137 0 .92.185 1.712.546 2.355.358.635.828 1.179 1.402 1.614.561.426 1.198.79 1.894 1.082.68.285 1.38.547 2.076.783.527.187 1.029.374 1.507.56.46.18.871.388 1.222.621.337.224.614.483.821.769.19.264.285.57.285.932 0 .416-.09.767-.28 1.073-.191.31-.461.58-.803.8-.357.228-.768.404-1.228.524-.462.12-.962.183-1.499.185-1.122.044-2.11-.025-2.933-.206-.81-.178-1.653-.565-2.503-1.15l-.599-.41.448 3.306.201.059c.999.285 1.993.49 2.956.61.956.118 1.909.189 2.831.213h.009c.836 0 1.701-.104 2.567-.307.873-.207 1.671-.535 2.374-.977.711-.447 1.298-1.032 1.741-1.74.451-.718.678-1.573.678-2.546 0-.874-.182-1.632-.547-2.253zm-125.55-9.876c1.175.452 2.146 1.105 2.887 1.94.74.831 1.284 1.85 1.62 3.031.332 1.162.499 2.491.499 3.949v8.498h-4.792v-9.593c0-1.143-.094-2.111-.281-2.875-.182-.739-.452-1.332-.805-1.764-.35-.428-.776-.726-1.302-.907-.538-.185-1.168-.264-1.87-.247-.099-.002-.176-.002-.254-.002-.619 0-1.198.079-1.72.236-.568.171-1.062.475-1.466.902-.41.434-.733 1.032-.957 1.78-.231.768-.348 1.735-.348 2.877v9.593h-4.794v-8.498c0-2.938.812-5.295 2.414-7.004 1.608-1.719 3.941-2.59 6.935-2.59 1.645 0 3.069.226 4.234.674zm14.04 2.5c.489-.287 1.07-.431 1.731-.431h.073c1.241 0 2.23.393 3.016 1.208.74.762 1.22 1.996 1.43 3.671h-8.747c.079-.56.205-1.108.379-1.64.205-.623.488-1.181.84-1.658.346-.468.775-.856 1.278-1.15zm8.5-.378c-.8-.816-1.769-1.468-2.886-1.942-1.116-.471-2.372-.724-3.75-.747-1.29.047-2.497.319-3.588.802-1.092.485-2.054 1.142-2.86 1.955-.808.814-1.444 1.768-1.89 2.834-.449 1.07-.674 2.226-.674 3.447.05 1.305.319 2.518.803 3.606.483 1.091 1.145 2.044 1.965 2.834.822.79 1.798 1.411 2.903 1.85 1.103.436 2.326.655 3.619.655h.004c.126.007.252.011.377.011.748 0 1.48-.128 2.173-.383.774-.282 1.546-.594 2.295-.924l.241-.107-.427-1.729-.319.084c-1.48.391-2.667.589-3.527.589-1.027 0-1.887-.176-2.559-.528-.677-.352-1.232-.799-1.648-1.326-.42-.532-.73-1.126-.921-1.766-.162-.539-.282-1.067-.358-1.576h13.39v-.313c0-.137.006-.314.017-.531.012-.231.018-.406.018-.514.05-1.191-.14-2.343-.562-3.424-.423-1.08-1.04-2.041-1.837-2.857zm10.201-.3v12.46h-.005l-.003.721c0 .43.13 1.11.846 1.21.281.041 1.038.084 1.35.084.039 0 .091-.004.14-.007l.097-.006.001 1.033c-.741.132-2.054.201-3.014.201-.696 0-1.3-.053-1.812-.163-.511-.108-.934-.262-1.27-.462-.337-.2-.584-.439-.745-.715-.161-.277-.243-.586-.243-.925v-2.548h.009V22.769h-4.226v-2.707h4.226v-5.916l4.649-2.835v8.751h4.189v2.707h-4.189z" clip-rule="evenodd"/>
    <path fill="#151B39" fill-rule="evenodd" d="M200.883 16.948h-1.306v-.25h2.893v.25h-1.307v3.414h-.28V16.95zM203.423 16.697h.263l1.505 2.168 1.506-2.168h.263v3.665h-.279v-3.183l-1.485 2.11h-.021l-1.485-2.11v3.183h-.267v-3.665zM201.081 38.364h1.619V36.56h-1.619v1.804zM208.591 38.571c-.668 0-1.287-.123-1.856-.37-.568-.246-1.06-.578-1.477-.996-.416-.418-.742-.908-.976-1.47-.234-.56-.352-1.15-.352-1.77v-.034c0-.63.118-1.225.352-1.787.234-.561.56-1.053.976-1.478.417-.423.909-.758 1.477-1.004.569-.246 1.188-.37 1.856-.37.434 0 .827.04 1.179.12.351.08.674.193.967.335.293.145.562.313.809.508.245.195.474.4.686.617l-.898.929c-.362-.366-.758-.68-1.186-.945-.428-.264-.954-.396-1.574-.396-.457 0-.886.09-1.284.267-.399.178-.745.42-1.038.73-.293.309-.523.673-.686 1.09-.164.42-.246.87-.246 1.35v.034c0 .482.084.93.255 1.35.171.418.404.785.704 1.099.298.315.65.56 1.055.74.405.177.847.266 1.328.266.585 0 1.105-.127 1.555-.379.452-.251.86-.566 1.223-.944l.863.79c-.458.504-.977.917-1.559 1.237-.579.32-1.297.481-2.153.481zM217.666 37.386c.492 0 .944-.093 1.354-.275.411-.184.763-.43 1.055-.74.294-.309.523-.67.687-1.082.163-.413.246-.853.246-1.323v-.035c0-.48-.085-.93-.255-1.348-.171-.419-.408-.784-.713-1.1-.304-.316-.662-.564-1.073-.748-.409-.183-.856-.275-1.336-.275-.492 0-.943.092-1.355.275-.41.184-.758.43-1.046.739-.288.31-.513.673-.677 1.091-.163.419-.246.863-.246 1.332v.034c0 .482.084.93.255 1.35.17.418.406.782.704 1.09.299.31.653.556 1.064.74.409.183.856.275 1.336.275zm-.035 1.185c-.68 0-1.308-.123-1.882-.37-.575-.246-1.073-.578-1.495-.996-.422-.418-.75-.905-.985-1.46-.235-.556-.351-1.15-.351-1.78v-.034c0-.63.116-1.225.351-1.787.235-.561.563-1.053.985-1.478.422-.423.923-.758 1.503-1.004.581-.246 1.217-.37 1.909-.37.68 0 1.311.124 1.891.37.58.246 1.082.578 1.503.997.422.418.75.904.986 1.46.233.555.351 1.148.351 1.778v.034c0 .63-.12 1.227-.361 1.788-.24.56-.571 1.054-.993 1.477-.422.424-.926.759-1.513 1.005-.587.247-1.219.37-1.899.37zM223.786 29.481h1.354v1.495c.153-.217.32-.43.502-.636.182-.206.39-.386.625-.541.234-.154.498-.278.791-.37.293-.092.634-.137 1.02-.137.739 0 1.348.168 1.829.507.481.337.844.76 1.091 1.263.164-.24.349-.47.553-.687.205-.218.438-.407.695-.568.259-.16.549-.286.87-.378.324-.092.684-.137 1.081-.137 1.057 0 1.883.318 2.482.953.598.636.896 1.51.896 2.621v5.499h-1.352v-5.178c0-.857-.211-1.518-.626-1.98-.417-.464-.994-.695-1.732-.695-.341 0-.662.06-.968.18-.305.12-.572.298-.8.531-.23.235-.412.523-.546.867-.134.342-.202.731-.202 1.165v5.11h-1.337v-5.213c0-.834-.208-1.483-.623-1.945-.417-.464-.989-.695-1.715-.695-.364 0-.698.069-1.003.205-.305.139-.572.333-.8.584-.229.251-.407.546-.537.882-.129.338-.194.713-.194 1.123v5.059h-1.354V29.48z" clip-rule="evenodd"/>
</svg>
